<svg width="329" height="169" viewBox="0 0 329 169" fill="none" xmlns="http://www.w3.org/2000/svg">
<g clip-path="url(#clip0_813_5334)">
<path d="M127.047 6.97615C126.08 2.20203 132.117 -0.773463 136.113 0.173958C138.332 0.832712 138.261 3.80821 136.721 5.13682C134.354 7.55718 129.995 9.43352 127.043 6.97615H127.047Z" fill="#44282F"/>
<path d="M128.536 6.21009C128.754 2.85711 133.109 1.35456 136.043 1.78016C136.131 5.28117 131.447 6.79113 128.536 6.21009Z" fill="#FEFDFD"/>
<path d="M113.37 18.8263C112.144 12.7791 124.925 11.7429 124.125 18.101C121.747 21.3059 116.014 21.9425 113.37 18.8263Z" fill="#44282F"/>
<path d="M211.175 16.343C211.219 15.9396 211.264 15.5399 211.316 15.1365C215.4 15.1254 219.482 15.1254 223.567 15.1439C223.615 15.5436 223.67 15.9433 223.726 16.3504C219.559 16.6242 215.337 16.6427 211.175 16.343Z" fill="#44282F"/>
<path d="M114.637 18.0047C116.174 15.2253 120.821 14.4888 122.747 17.1868C120.807 19.4332 116.977 19.9106 114.637 18.0047Z" fill="#FEFDFD"/>
<path d="M200.764 23.8594C199.779 19.7922 206.416 16.1172 209.949 19.237C209.786 21.2096 207.845 19.4776 206.697 19.5664C203.779 19.1112 202.545 22.2199 200.764 23.8557V23.8594Z" fill="#44282F"/>
<path d="M59.8662 23.0305C63.8363 20.9654 68.1545 24.4073 68.1212 28.5596C66.325 28.4745 66.2695 26.1504 65.1733 25.0845C63.9696 23.2674 61.6031 24.1926 59.8218 24.1445C59.8366 23.7707 59.8514 23.4006 59.8662 23.0268V23.0305Z" fill="#44282F"/>
<path d="M151.086 35.0509C153.471 26.4131 163.697 21.0913 172.129 24.2666C178.44 26.2281 182.799 32.8045 182.314 39.3736C208.016 36.0539 236.255 42.6303 254.472 61.8933C252.298 61.8193 250.491 63.1442 248.543 63.8844C244.665 65.5572 240.151 65.9754 236.892 68.8954C236.099 69.7725 234.921 69.2284 233.981 68.9657C226.155 66.3973 217.56 66.3455 209.671 68.6585C204.946 64.1619 197.928 64.1286 192.672 60.4981C189.947 58.6069 188.495 62.3707 187.887 64.4136C185.077 71.6229 185.106 82.5812 193.265 86.208C191.235 90.0199 190.787 94.7459 187.469 97.7436C183.766 102.425 183.991 109.264 187.339 114.076C188.717 115.589 187.213 117.366 186.862 118.979C183.958 126.714 187.406 134.519 191.376 141.099C185.184 141.336 178.981 141.288 172.796 141.732C173.122 140.492 173.314 139.227 173.518 137.968C173.9 135.159 175.985 131.695 174.04 129.186C170.329 128.176 167.026 131.233 164.689 133.772C163.526 131.074 159.782 129.408 161.145 126.029C169.722 123.383 175.881 113.291 171.8 104.716C166.944 98.7539 169.729 90.353 166.344 83.5952C170.978 77.4147 173.811 70.0648 176.185 62.7815C177.129 60.8349 174.962 59.3027 173.233 60.2057C166.059 62.4521 158.13 62.0006 151.39 65.5868C142.931 60.4278 132.75 59.0474 123.021 59.9837C127.666 57.9408 133.813 61.6639 137.732 57.7002C142.116 54.3621 146.905 51.653 151.716 48.9847C150.501 44.4548 149.412 39.6437 151.083 35.0546L151.086 35.0509Z" fill="#EAC7CA"/>
<path d="M46.9633 36.3684C52.2889 34.1405 57.9181 39.255 57.2145 44.7249C61.7068 45.5946 63.8696 51.2607 61.6142 55.0911C59.7847 58.4662 55.7405 59.7393 52.1074 59.2286C51.326 63.6178 47.4373 68.0478 42.6414 67.4519C38.1083 66.2122 31.7903 66.4268 30.02 60.9347C28.7053 57.5669 31.568 54.7728 31.3681 51.4531C32.468 46.357 38.338 44.8841 42.8154 45.9536C42.2747 42.2972 42.9858 37.7673 46.9596 36.3647L46.9633 36.3684Z" fill="#44282F"/>
<path d="M45.0935 46.172C43.0973 42.7487 45.3712 37.4453 49.6821 37.7451C54.0892 37.6526 56.1039 42.6006 54.9336 46.3311C59.1074 45.7649 62.1738 50.6648 60.0665 54.2102C58.4185 57.4004 54.4484 57.7446 51.2745 57.356C49.7376 59.5062 49.7413 62.5594 47.3415 64.1804C44.7528 66.845 40.9752 65.2092 37.9495 64.5208C34.7164 64.5134 31.1129 61.8784 31.6055 58.3515C31.2537 56.453 33.5757 55.4167 33.1017 53.5293C32.6017 49.858 36.5718 46.79 40.0457 47.5191C41.8233 47.8781 44.3269 48.374 45.0935 46.1683V46.172Z" fill="#FEFDFD"/>
<path d="M270.267 41.4275C274.292 40.4135 279.999 43.4223 279.914 47.9966C277.314 54.7765 263.697 45.739 270.267 41.4275Z" fill="#44282F"/>
<path d="M270.678 42.9041C273.737 42.6229 278.392 44.4844 278.096 48.0817C275.344 49.847 268.656 46.2238 270.678 42.9041Z" fill="#FEFDFD"/>
<path d="M91.49 54.8875C91.9493 53.3554 93.7047 52.1415 95.1343 53.348C100.26 57.2413 106.522 59.1065 112.029 62.3411C115.596 61.1901 119.262 60.1872 123.021 59.9836C132.75 59.051 142.931 60.4277 151.39 65.5867C158.13 62.0006 166.059 62.4521 173.233 60.2057C174.962 59.299 177.129 60.8311 176.184 62.7815C173.814 70.0648 170.977 77.4184 166.344 83.5951C169.729 90.3529 166.944 98.7539 171.799 104.716C175.881 113.291 169.722 123.383 161.145 126.029C159.782 129.412 163.53 131.077 164.689 133.771C167.026 131.236 170.325 128.179 174.04 129.186C175.981 131.699 173.899 135.159 173.518 137.968C172.581 140.181 172.225 142.624 170.959 144.696C170.662 144.589 170.366 144.485 170.07 144.382C171.029 139.719 173.303 135.207 173.081 130.381C166.255 131.399 163.667 138.727 162.73 144.656C162.33 144.645 161.933 144.634 161.537 144.626C161.308 139.867 165.859 134.693 160.959 130.948C160.011 135.988 157.349 140.326 154.904 144.737C154.171 146.373 154.056 148.19 154.193 149.959C155.089 152.886 152.127 154.67 149.542 154.215C145.364 154.148 138.087 155.577 138.313 149.234C126.921 153.382 114.455 152.527 102.808 150.096C97.0267 155.473 85.8164 152.55 84.5276 144.315C83.4943 146.092 82.7832 149.049 80.139 148.723C77.0095 148.475 73.4024 149.493 70.6729 147.528C69.3915 145.814 69.5175 143.405 69.7693 141.369C71.1285 134.889 68.7286 128.32 69.8878 121.799C70.9618 107.592 78.7835 95.0456 87.4422 84.1614C88.4347 83.0363 89.4457 81.9335 90.3309 80.7196C85.3016 72.8885 87.7162 62.7408 91.49 54.8875Z" fill="#44282F"/>
<path d="M89.9941 75.4976C88.4646 68.4178 90.2756 60.9495 93.7902 54.7209C98.6232 58.4255 104.438 60.3796 109.756 63.2181C114.152 65.4498 117.174 70.0425 117.326 74.9906C117.548 74.9758 117.985 74.9462 118.207 74.9314C119.011 72.0336 117.937 69.0618 116.5 66.56C120.148 67.3446 122.244 71.1269 122.688 74.5798C124.562 75.3015 124.621 71.7745 125.377 70.5236C126.321 72.2556 126.432 74.2282 126.503 76.1564C130.132 75.4902 130.902 70.705 130.788 67.574C134.436 70.0647 137.824 73.3289 142.146 74.5576C144.861 71.7153 144.442 67.5518 143.568 64.0323C157.634 68.6917 167.174 82.977 167.044 97.6658C166.126 101.707 170.248 103.894 170.818 107.606C172.67 114.116 168.285 120.874 162.367 123.465C145.624 129.96 125.818 129.845 109.659 121.914C109.645 122.132 109.608 122.562 109.593 122.78C116.5 128.442 126.044 129.508 134.68 129.804C143.02 130.122 151.42 129.223 159.378 126.662C160.367 135.97 150.994 142.402 152.697 151.658C151.416 151.713 150.086 150.544 149.257 152.087C148.438 152.087 147.79 151.55 147.09 151.214C143.946 150.588 145.046 146.921 144.65 144.596C145.535 143.235 146.987 142.072 147.12 140.363C144.431 142.69 141.983 145.647 138.495 146.732C127.614 147.724 116.048 146.787 106.66 140.633C107.019 139.138 107.156 137.598 107.06 136.066C106.671 136.055 106.282 136.047 105.897 136.04C104.771 141.047 103.327 146.254 99.9675 150.259C99.1639 150.122 98.3714 149.918 97.6233 149.596C96.6418 150.973 95.0679 150.703 94.2457 149.334C91.7718 151.891 88.3424 148.956 87.4425 146.321C84.5315 137.987 84.6167 128.86 86.3277 120.293C84.0131 121.958 84.1834 125.652 83.539 128.283C82.8317 131.451 83.1946 134.723 83.3131 137.931C81.4688 136.98 79.5356 135.97 78.5319 134.045C77.8209 132.517 77.2691 130.881 77.058 129.208C76.8839 128.294 77.0876 127.028 75.9803 126.658C75.5951 133.05 75.8692 139.552 74.6989 145.888C73.4804 147.479 70.7066 146.043 71.4065 144.027C72.7731 136.14 70.5251 128.172 71.888 120.3C72.9879 110.053 77.8394 100.597 83.7501 92.3106C89.3979 92.7177 94.8753 89.7089 98.2714 85.3123C99.4528 85.131 100.601 84.8127 101.719 84.4019C101.782 84.1539 101.908 83.6543 101.971 83.4027C96.5604 84.7979 91.0681 80.7972 89.9941 75.4865V75.4976Z" fill="#FEEADF"/>
<path d="M100.389 79.6316C92.7122 76.0491 91.0604 65.5313 94.1047 58.3257L94.2269 58.6884C98.5525 63.7474 105.33 67.1559 108.007 73.7805C108.233 73.7842 108.685 73.7953 108.915 73.8027C108.93 73.329 108.944 72.8553 108.952 72.389C112.111 77.4295 104.826 82.026 100.389 79.6279V79.6316Z" fill="#F7C0B9"/>
<path d="M287.747 58.5477C291.451 58.2183 296.206 61.4603 295.184 65.5868C292.01 68.0885 287.262 65.4461 285.588 62.3004C284.581 60.6313 285.818 58.5255 287.744 58.5477H287.747Z" fill="#44282F"/>
<path d="M108.008 73.7805C105.33 67.1559 98.5527 63.7474 94.2271 58.6884C100.041 61.9562 106.504 65.8495 108.952 72.389C108.945 72.8553 108.93 73.329 108.915 73.8027C108.689 73.7953 108.237 73.7842 108.008 73.7805Z" fill="#44282F"/>
<path d="M187.887 64.4136C188.495 62.3707 189.946 58.6069 192.672 60.4981C197.927 64.1286 204.945 64.1619 209.671 68.6585C217.563 66.3491 226.159 66.4009 233.98 68.9656C234.921 69.2284 236.095 69.7687 236.891 68.8953C240.15 65.9753 244.665 65.5571 248.542 63.8843C250.49 63.1442 252.294 61.8193 254.472 61.8933C254.553 62.0376 254.72 62.3263 254.801 62.4669C258.801 69.2321 260.245 78.8136 254.568 85.094C255.675 86.7076 256.223 89.1316 257.912 90.0976C262.256 89.2871 267.393 91.5705 268.197 96.2521C268.315 98.2321 269.856 99.7198 270.33 101.478C266.3 103.454 263.49 99.0611 262.786 95.6748C261.886 95.6452 260.982 95.5971 260.086 95.5378C263.423 104.594 264.815 114.379 263.73 123.986C263.045 130.115 259.927 135.596 258.801 141.625C258.512 143.901 257.927 147.317 254.942 147.217C251.672 146.884 247.046 148.512 245.261 144.785C241.698 149.489 233.04 149.8 229.57 144.926C221.678 145.903 213.311 145.196 206.223 141.366C205.245 143.531 205.66 146.262 204.116 148.142C201.075 149.848 197.42 148.486 194.124 148.645C191.409 148.19 191.643 144.911 191.654 142.82C191.628 142.235 191.517 141.662 191.372 141.099C187.406 134.519 183.958 126.714 186.858 118.979C187.21 117.366 188.713 115.589 187.335 114.075C183.988 109.264 183.762 102.425 187.465 97.7436C190.783 94.7459 191.231 90.0199 193.261 86.208C185.102 82.5811 185.073 71.6229 187.884 64.4136H187.887Z" fill="#44282F"/>
<path d="M287.01 60.8903C289.488 59.125 293.232 61.8932 293.876 64.5615C291.236 65.583 287.632 63.5697 287.01 60.8903Z" fill="#FEFDFD"/>
<path d="M120.447 62.2338C123.421 61.7526 126.488 61.5528 129.491 61.6416C134.761 63.418 139.35 67.5075 141.298 72.759C136.776 70.8531 133.098 67.3299 128.795 64.9872C126.025 64.0916 122.869 63.9584 120.447 62.2338Z" fill="#FEEADF"/>
<path d="M132.361 61.9303C135.683 61.7415 139.365 61.9488 142.205 63.851C142.375 64.68 142.538 65.5127 142.716 66.3454C139.805 63.6438 135.472 64.247 132.361 61.9266V61.9303Z" fill="#FEEADF"/>
<path d="M153.145 66.845C159.77 63.7918 167.355 64.1471 174.232 61.8156C172.951 68.9175 169.385 75.6605 165.478 81.7336C164.789 80.5049 164.126 79.2614 163.526 77.9883C166.326 73.9544 170.025 70.3609 171.507 65.5645C172.092 64.965 172.807 64.4432 173.073 63.6068C168.088 65.6941 162.844 68.3032 159.974 73.1106C158.004 70.7087 155.549 68.788 153.149 66.8487L153.145 66.845Z" fill="#FEEADF"/>
<path d="M192.394 83.7913C186.113 78.3991 187.317 68.1292 191.357 61.7675C197.409 66.4157 207.067 65.7089 210.786 73.3142C208.589 73.9544 206.512 74.887 204.427 75.8196C202.001 70.4497 196.464 67.5704 191.672 64.6208C191.639 64.7985 191.579 65.1537 191.546 65.3314C190.535 71.0603 192.724 77.411 197.386 81.0046C195.975 82.3628 194.635 86.0081 192.394 83.7876V83.7913Z" fill="#FEEADF"/>
<path d="M254.801 62.4669C271.541 78.1993 280.448 104.364 270.881 126.203C270.319 126.973 271.026 127.647 271.467 128.253C266.237 125.422 267.048 132.698 267.656 135.755C267.534 137.85 268.241 139.826 269 141.743C265.623 141.732 262.101 142.435 258.808 141.625C259.934 135.592 263.052 130.111 263.738 123.986C264.823 114.379 263.43 104.598 260.093 95.5378C260.99 95.5971 261.89 95.6452 262.793 95.6748C263.493 99.0611 266.304 103.458 270.337 101.478C269.863 99.7198 268.322 98.2321 268.204 96.2521C267.397 91.5705 262.26 89.2871 257.919 90.0976C256.231 89.128 255.683 86.7076 254.575 85.094C260.253 78.8099 258.812 69.2321 254.809 62.4669H254.801Z" fill="#EAC7CA"/>
<path d="M114.263 63.6771C118.518 61.4455 122.514 64.7022 126.588 65.6201C130.769 65.7274 129.606 71.9152 127.721 73.984C126.936 71.1158 125.943 67.7777 123.021 66.4157C123.999 68.1774 124.514 70.1943 123.973 72.1854C122.425 67.674 117.929 65.5349 114.263 63.6771Z" fill="#FEEADF"/>
<path d="M235.425 76.5079C235.732 67.0152 247.261 67.4408 253.494 63.6733C256.32 69.2431 258.101 76.3895 254.542 82.0481C253.224 84.6461 250.161 85.4566 247.465 85.4788C248.828 87.1627 251.135 86.8 252.95 86.219C260.16 96.896 263.201 110.134 261.975 122.906C261.338 130.159 257.383 136.595 256.594 143.83C256.583 145.474 254.594 145.792 253.813 144.463C254.494 141.395 256.286 138.064 255.224 134.941C256.157 133.405 257.553 131.988 257.694 130.119C254.946 133.05 252.635 137.054 248.676 138.364C250.42 133.945 252.035 129.264 251.827 124.453C251.361 124.59 250.468 124.275 250.376 124.96C249.194 131.61 247.487 138.49 243.432 144.019C242.358 145.588 240.162 146.995 238.558 145.244C237.41 146.462 235.843 146.284 234.947 144.885C234.121 145.57 232.74 146.284 231.966 145.107C229.588 141.007 230.281 136.044 229.581 131.562C229.173 131.569 228.773 131.577 228.37 131.588C227.929 132.609 227.999 133.731 228.036 134.819C220.974 140.707 210.578 138.238 202.379 136.203C201.549 135.596 200.868 134.804 200.027 134.216C200.461 136.736 202.775 138.301 204.364 140.041C204.075 142.628 203.979 149.408 200.016 145.973C199.327 146.51 198.346 147.387 197.572 146.458C196.313 145.111 194.861 147.85 193.535 146.314C193.905 142.598 192.887 138.912 190.695 135.896C187.058 130.274 186.865 122.869 189.591 116.84C192.687 119.438 196.279 121.259 199.983 122.824C210.53 126.906 222.448 126.514 233.429 124.578C237.121 123.394 242.043 122.558 243.865 118.753C240.273 120.337 236.721 122.143 232.762 122.661C224.411 121.477 215.804 122.835 207.46 121C204.742 120.508 201.972 119.786 199.205 120.404C193.557 118.217 187.643 114.138 186.732 107.684C185.765 103.236 188.269 99.0388 191.391 96.1373C193.998 84.7683 203.546 75.0683 215.452 74.1135C222.192 73.2068 229.033 74.354 235.429 76.5079H235.425Z" fill="#FEEADF"/>
<path d="M136.798 64.8465C140.32 64.6874 143.861 67.7406 142.676 71.4637C140.683 69.295 139.069 66.7821 136.798 64.8465Z" fill="#FEEADF"/>
<path d="M191.55 65.3351C195.642 68.6585 200.416 71.6118 202.864 76.4673C200.898 77.7996 199.083 79.3503 197.391 81.0119C192.728 77.4184 190.539 71.0677 191.55 65.3388V65.3351Z" fill="#F7C0B9"/>
<path d="M161.182 74.6835C163.496 70.62 167.433 67.7037 171.503 65.5646C170.022 70.3646 166.326 73.9544 163.522 77.9884C162.763 76.867 161.982 75.7716 161.182 74.6835Z" fill="#F7C0B9"/>
<path d="M251.961 66.2973C252.424 66.2455 252.89 66.2011 253.364 66.1641C254.572 71.3823 253.201 77.7811 248.802 81.1711C246.024 83.399 240.161 82.2961 240.184 78.1808L240.31 78.066C243.591 73.4215 248.268 70.161 252.798 66.8265C252.69 66.7599 252.475 66.6267 252.368 66.5601L251.964 66.2973H251.961Z" fill="#F7C0B9"/>
<path d="M252.365 66.5601C252.472 66.6267 252.687 66.7599 252.794 66.8265C248.265 70.161 243.587 73.4215 240.306 78.066C240.995 72.2002 247.713 69.2358 252.361 66.5601H252.365Z" fill="#44282F"/>
<path d="M211.234 70.4274C217.307 68.2957 224.011 68.5548 230.251 69.7724C228.144 70.5569 225.877 70.9344 223.966 72.2149C220.152 72.3852 216.274 72.0669 212.522 72.9847C212.078 72.1372 211.648 71.2823 211.23 70.4274H211.234Z" fill="#FEEADF"/>
<path d="M225.529 72.4777C228.425 71.3564 231.759 70.1832 234.788 71.5007C234.318 72.4888 233.988 73.5362 233.895 74.6316C231.181 73.6065 228.251 73.4177 225.529 72.4777Z" fill="#FEEADF"/>
<path d="M70.1064 75.6938C77.0948 74.3985 83.7092 78.4806 87.446 84.1614C78.7873 95.0457 70.9619 107.592 69.8916 121.799C68.7324 128.32 71.1322 134.889 69.7731 141.369C69.1139 141.084 68.4509 140.777 67.851 140.381C64.8475 137.594 60.3145 139.364 57.6109 141.714C58.2998 136.499 59.259 131.159 58.4812 125.915C58.2405 124.112 56.211 124.053 54.8259 124.468C55.537 124.12 56.2629 123.794 57.011 123.528C50.3485 113.328 48.656 99.7643 54.0223 88.6395C56.9702 82.1814 62.8884 76.682 70.1101 75.6938H70.1064Z" fill="#EAC7CA"/>
<path d="M84.5723 91.2263C86.5758 88.014 89.1497 85.1347 91.6125 82.2517C93.0606 83.6691 94.8864 84.5536 96.764 85.2605C93.5235 88.484 89.2497 91.1042 84.5723 91.2263Z" fill="#FEEADF"/>
<path d="M39.0789 83.4212C43.7415 83.3139 48.4005 83.3768 53.0668 83.4027C53.2187 83.6544 53.5298 84.1614 53.6853 84.4168C48.9671 85.3568 43.9749 84.6351 39.153 84.8164C39.1641 84.3501 39.1419 83.8801 39.0752 83.4212H39.0789Z" fill="#44282F"/>
<path d="M293.784 88.0029C295.609 82.7032 305.901 85.094 304.898 90.834C301.816 94.3091 294.38 92.8436 293.784 88.0029Z" fill="#44282F"/>
<path d="M295.502 88.9503C296.076 85.2754 302.232 86.678 303.48 89.5166C301.687 92.1331 297.425 90.9377 295.502 88.9503Z" fill="#FEFDFD"/>
<path d="M204.938 90.712C210.467 89.0799 208.468 97.7177 204.083 97.1367C200.561 96.4446 202.39 91.5965 204.938 90.712Z" fill="#44282F"/>
<path d="M227.262 91.5668C230.573 89.6831 234.399 95.2603 231.647 97.7547C228.266 99.8864 224.159 94.0797 227.262 91.5668Z" fill="#44282F"/>
<path d="M258.257 91.9405C260.412 91.1671 263.968 91.8295 264.867 94.1203C263.086 94.1685 261.308 94.1315 259.531 94.1722C259.09 93.4357 258.668 92.6881 258.257 91.9405Z" fill="#FEEADF"/>
<path d="M206.342 97.3365C211.967 92.9288 221.081 93.2211 226.396 98.0026C229.996 101.996 225.877 108.051 221.315 108.983C220.789 113.054 216.337 116.611 212.419 114.194C210.204 112.943 209.849 110.201 209.83 107.902C206.075 106.241 203.16 100.775 206.342 97.3328V97.3365Z" fill="#44282F"/>
<path d="M267.585 99.9344C265.245 99.4903 263.893 95.7562 265.315 93.9094C266.789 95.5637 266.863 97.9175 267.585 99.9344Z" fill="#FEEADF"/>
<path d="M127.85 102.647C124.521 100.723 126.884 94.2462 130.787 95.2011C133.957 97.3068 131.787 103.628 127.85 102.647Z" fill="#44282F"/>
<path d="M156.33 95.597C159.952 95.1603 160.456 100.812 157.76 102.373C154.256 102.629 153.027 96.6295 156.33 95.597Z" fill="#44282F"/>
<path d="M31.2608 96.0337C33.4273 95.5378 36.6271 96.0596 36.8345 98.7798C36.3938 102.928 30.2646 105.09 27.2907 102.259C25.7723 99.5495 28.7943 96.7332 31.2571 96.0337H31.2608Z" fill="#44282F"/>
<path d="M213.115 96.304C217.333 95.5231 222.17 96.4335 225.385 99.3757C227.492 103.491 222.951 107.58 218.941 107.451C214.419 107.714 208.138 107.073 206.879 101.774C206.06 98.1322 210.297 96.7037 213.115 96.3077V96.304Z" fill="#F7C0B9"/>
<path d="M194.176 97.0108C196.346 96.4815 198.624 98.0655 198.95 100.264C199.92 104.091 194.843 107.965 191.58 105.371C188.758 102.914 190.51 97.5511 194.18 97.0108H194.176Z" fill="#F7C0B9"/>
<path d="M28.6538 101.492C28.302 98.4837 32.7832 96.463 35.0275 98.3134C35.0349 98.6317 35.0423 99.2794 35.046 99.6014C33.6017 101.522 30.9092 102.314 28.6538 101.492Z" fill="#FEFDFD"/>
<path d="M311.175 98.6022C312.416 98.617 314.316 98.0248 314.679 99.6902C313.497 99.7864 312.32 99.7939 311.146 99.7716C311.149 99.3794 311.16 98.9871 311.175 98.6022Z" fill="#44282F"/>
<path d="M238.354 99.2424C241.576 98.6688 245.054 102.133 243.724 105.345C242.361 108.95 236.506 108.672 235.003 105.327C233.747 102.869 235.484 99.3683 238.354 99.2424Z" fill="#F7C0B9"/>
<path d="M142.612 100.449C147.06 100.09 152.404 100.264 155.612 103.798C158.159 107.877 154.734 113.239 150.567 114.59C144.657 116.844 135.413 115.267 134.102 108.002C132.969 103.028 138.668 100.804 142.612 100.449Z" fill="#44282F"/>
<path d="M113.651 101.855C117.359 101.152 120.958 104.683 120.177 108.387C119.503 112.95 113.092 114.338 110.229 110.978C107.23 107.873 109.359 102.218 113.651 101.859V101.855Z" fill="#F7C0B9"/>
<path d="M142.965 102.211C146.872 101.729 151.886 102.011 154.508 105.304C155.938 115.474 137.595 116.792 135.921 107.558C135.21 103.683 140.124 102.725 142.965 102.211Z" fill="#F7C0B9"/>
<path d="M212.189 104.398C213.145 103.794 214.334 102.196 215.493 102.854C215.134 104.353 213.538 104.857 212.189 104.398Z" fill="#44282F"/>
<path d="M217.489 102.866C218.555 103.154 219.585 103.883 219.696 105.068C218.57 104.772 217.185 104.316 217.489 102.866Z" fill="#44282F"/>
<path d="M163.37 103.339C169 100.982 172.185 111.241 166.555 112.858C161.215 114.242 158.356 105.523 163.37 103.339Z" fill="#F7C0B9"/>
<path d="M19.3877 107.706C20.5172 107.414 21.6764 107.469 22.8171 107.691C22.8171 107.932 22.8245 108.413 22.8282 108.657C21.6912 108.75 20.5506 108.742 19.4136 108.657C19.4062 108.42 19.3951 107.947 19.3877 107.706Z" fill="#44282F"/>
<path d="M143.75 108.935C143.968 108.924 144.405 108.898 144.624 108.887C144.909 110.482 143.202 110.982 141.942 110.989C142.472 110.245 143.068 109.546 143.746 108.935H143.75Z" fill="#44282F"/>
<path d="M146.631 108.802C147.657 109.198 148.471 109.934 149.149 110.782C147.76 111.411 146.305 110.308 146.631 108.802Z" fill="#44282F"/>
<path d="M211.934 108.868C214.174 109.09 217 109.135 219.196 109.442C219.104 114.56 210.327 114.05 211.934 108.868Z" fill="#F7C0B9"/>
<path d="M288.318 120.408C289.925 116.174 292.639 111.866 296.939 110.005C298.261 109.201 300.313 110.082 300.135 111.748C300.039 116.518 298.724 121.163 297.728 125.8C301.25 123.935 306.005 121.888 309.731 124.201C309.761 127.676 306.498 130.045 304.339 132.41C304.198 132.028 304.079 131.64 303.961 131.259C305.161 129.212 307.527 127.339 307.983 125.193C303.613 124.164 297.48 126.277 295.969 131.007C295.613 131.806 295.217 132.595 294.817 133.379C293.647 130.33 296.243 127.332 296.284 124.212C297.147 119.93 298.402 115.689 298.521 111.296C293.88 112.688 291.217 117.465 289.64 121.74C290.691 127.284 293.395 133.25 291.288 139.027C289.451 134.071 290.895 127.939 287.714 123.169C285.973 120.33 283.873 117.195 280.5 116.211C279.437 121.414 280.029 126.777 279.989 132.051C279.907 134.556 280.577 137.062 280.081 139.556C279.889 139.508 279.503 139.412 279.314 139.363C278.929 138.694 278.544 138.027 278.152 137.369C276.007 133.883 273.23 129.719 268.815 129.205C268.682 132.602 269.056 136.003 268.793 139.401C268.36 138.201 267.952 136.991 267.652 135.755C267.049 132.695 266.234 125.422 271.463 128.253C274.267 129.534 276.396 131.891 278.196 134.33C278.226 128.501 277.674 122.602 278.57 116.818C278.618 115.441 279.881 114.198 281.307 114.62C284.247 115.704 286.192 118.257 288.314 120.408H288.318Z" fill="#44282F"/>
<path d="M289.644 121.747C291.221 117.469 293.888 112.695 298.524 111.303C298.406 115.696 297.147 119.938 296.288 124.219C296.095 124.186 295.71 124.12 295.517 124.086C295.465 121.733 295.969 119.423 296.113 117.088C293.443 117.954 291.21 120.052 289.869 122.495C289.814 122.306 289.699 121.936 289.644 121.751V121.747Z" fill="#D2DBCC"/>
<path d="M280.503 116.215C283.877 117.199 285.977 120.334 287.718 123.172C288.092 124.504 288.344 125.87 288.569 127.232C287.003 126.259 286.088 124.134 283.966 124.364C281.811 127.528 282.277 131.51 280.977 134.967C280.614 134.008 280.259 133.042 279.985 132.051C280.026 126.777 279.437 121.414 280.496 116.211L280.503 116.215Z" fill="#D2DBCC"/>
<path d="M289.869 122.491C291.21 120.045 293.439 117.947 296.113 117.084C295.969 119.419 295.465 121.729 295.517 124.083C295.709 124.116 296.095 124.182 296.287 124.216C296.246 127.339 293.65 130.337 294.821 133.383C295.217 132.598 295.613 131.81 295.972 131.011C296.061 131.314 296.239 131.921 296.332 132.224C298.498 131.421 300.261 129.319 302.713 129.478C302.668 130.548 302.661 131.614 302.69 132.687C303.102 132.202 303.542 131.736 303.964 131.259C304.083 131.64 304.201 132.025 304.342 132.41C304.639 132.88 305.324 132.954 305.794 133.227C299.457 132.902 293.006 137.372 291.432 143.56C295.469 140.093 299.568 133.623 305.95 134.959C306.761 138.209 303.157 140.518 302.046 143.36C302.316 143.46 302.865 143.664 303.135 143.767C299.354 143.801 295.58 144.108 291.795 143.93C285.792 143.068 279.74 142.539 273.715 141.91C269.445 140.755 271.411 135.355 270.978 132.165C273.644 133.546 275.396 136.036 277.526 138.057C277.685 137.887 277.996 137.543 278.151 137.369C278.54 138.027 278.925 138.694 279.314 139.363C279.503 139.412 279.888 139.508 280.081 139.556C280.577 137.061 279.907 134.56 279.988 132.051C280.259 133.042 280.614 134.005 280.981 134.967C282.281 131.51 281.814 127.528 283.97 124.364C286.088 124.134 287.006 126.259 288.573 127.232C288.347 125.866 288.095 124.501 287.721 123.172C290.902 127.946 289.458 134.075 291.295 139.03C293.402 133.253 290.702 127.288 289.647 121.744C289.702 121.929 289.817 122.299 289.873 122.487L289.869 122.491Z" fill="#9CA995"/>
<path d="M35.7495 118.561C42.0602 119.538 44.9896 126.888 47.1599 132.213C49.1671 129.168 51.1855 125.792 54.8223 124.464C56.2074 124.049 58.2369 124.109 58.4776 125.911C59.259 131.155 58.2998 136.495 57.6073 141.71C60.3108 139.363 64.8438 137.594 67.8473 140.378C68.2288 140.984 68.3992 141.691 68.6066 142.376C68.3436 142.394 67.8214 142.439 67.5548 142.457C64.8809 138.609 59.7553 141.329 57.4629 144.189C56.9629 144.541 56.4148 145.078 55.7593 144.77C55.6445 141.965 56.5407 139.238 56.4666 136.429C56.9259 132.979 57.0407 129.501 56.8999 126.026C53.1261 125.907 50.7633 129.815 49.1931 132.776C46.8747 136.954 47.8339 141.865 47.5598 146.421C47.0858 146.451 46.6117 146.48 46.1414 146.517C45.5526 140.644 47.708 134.334 43.9527 129.153C42.0972 125.792 40.2159 121.251 36.1421 120.304C35.6606 125.141 35.2829 130.393 36.7643 135.037C39.99 138.005 43.049 141.902 42.512 146.569C42.3231 146.536 41.9491 146.473 41.7602 146.44C41.3269 145.096 40.8677 143.76 40.2714 142.487C37.8346 136.643 31.5572 132.709 25.2465 133.013C25.2687 136.64 26.7686 140.041 28.1722 143.32C28.3648 144.186 28.2759 145.074 28.2871 145.958C27.8871 145.685 27.4871 145.422 27.0945 145.141C26.3131 143.523 25.6021 141.873 24.9391 140.204C24.3132 137.509 22.3245 134.016 24.2281 131.573C27.5908 130.541 31.3239 131.995 34.32 133.631C34.8199 128.705 32.7312 122.817 35.7421 118.561H35.7495Z" fill="#44282F"/>
<path d="M232.759 122.658C236.714 122.14 240.265 120.334 243.861 118.75C242.039 122.554 237.117 123.394 233.425 124.575C232.466 124.704 231.507 124.789 230.551 124.889C230.707 124.323 230.707 123.735 230.596 123.165C231.314 122.998 232.036 122.824 232.759 122.658Z" fill="#44282F"/>
<path d="M199.201 120.4C201.968 119.786 204.738 120.504 207.456 120.996C215.8 122.832 224.407 121.474 232.758 122.658C232.036 122.824 231.314 122.998 230.595 123.165C230.706 123.735 230.706 124.323 230.551 124.889C231.506 124.79 232.466 124.704 233.425 124.575C222.444 126.51 210.526 126.903 199.979 122.821C200.42 122.743 200.868 122.669 201.312 122.599C201.694 121.163 200.253 120.778 199.205 120.4H199.201Z" fill="#F7C0B9"/>
<path d="M36.1493 120.308C40.2194 121.255 42.1044 125.796 43.9599 129.157C43.8599 129.449 43.6599 130.037 43.5599 130.333C42.1563 129.108 41.0675 127.462 39.2602 126.788C37.2085 129.145 38.7306 132.691 36.7752 135.041C35.2938 130.396 35.6678 125.145 36.153 120.308H36.1493Z" fill="#D2DBCC"/>
<path d="M295.973 131.011C297.484 126.277 303.617 124.168 307.987 125.197C307.531 127.339 305.161 129.212 303.965 131.262C303.543 131.74 303.102 132.206 302.691 132.691C302.661 131.618 302.669 130.552 302.713 129.482C300.265 129.323 298.502 131.425 296.332 132.228C296.239 131.925 296.062 131.318 295.973 131.014V131.011Z" fill="#D2DBCC"/>
<path d="M49.2003 132.78C50.7705 129.819 53.1296 125.911 56.9072 126.029C57.0479 129.504 56.9331 132.983 56.4739 136.432C55.822 138.32 55.6258 140.311 55.2999 142.272C54.2555 138.268 56.2702 133.675 54.2555 129.978C51.8001 130.8 50.3335 132.968 49.041 135.067C49.0855 134.301 49.1262 133.535 49.2003 132.78Z" fill="#D2DBCC"/>
<path d="M36.7754 135.037C38.7308 132.687 37.2087 129.145 39.2604 126.784C41.0677 127.458 42.1565 129.105 43.5601 130.33C43.6601 130.037 43.8601 129.449 43.9601 129.153C47.7154 134.334 45.56 140.644 46.1488 146.517C46.6192 146.48 47.0932 146.451 47.5673 146.421C47.8413 141.865 46.8821 136.95 49.2005 132.776C49.1264 133.531 49.0857 134.301 49.0412 135.063C50.3337 132.965 51.8003 130.796 54.2557 129.974C56.2667 133.671 54.2557 138.264 55.3001 142.269C55.6223 140.307 55.8186 138.316 56.4741 136.429C56.5481 139.238 55.6519 141.965 55.7667 144.77C56.4222 145.074 56.9703 144.541 57.4703 144.189C59.8738 145.633 62.6107 140.925 63.7662 144.989C58.9702 148.057 52.7965 145.64 47.5191 146.943C41.3566 146.854 35.1829 147.298 29.0315 146.787C28.0315 146.784 27.4464 145.962 27.1094 145.133C27.4982 145.414 27.8982 145.677 28.3019 145.951C28.2908 145.066 28.3797 144.178 28.1871 143.312C29.487 141.506 28.8907 139.001 30.4166 137.332C34.4385 137.961 36.4791 141.854 39.9381 143.508C40.0233 143.249 40.1974 142.731 40.2863 142.476C40.8825 143.753 41.3417 145.089 41.7751 146.428C41.9639 146.462 42.338 146.525 42.5269 146.558C43.0602 141.891 40.0048 137.994 36.7791 135.026L36.7754 135.037Z" fill="#9CA995"/>
<path d="M75.9801 126.662C77.0875 127.032 76.8801 128.298 77.0578 129.212C76.8134 128.601 76.5912 127.924 75.9579 127.61C75.595 133.287 78.2985 138.716 82.0982 142.79C84.1055 144.493 80.9502 148.334 79.0207 145.984C77.7133 147.424 76.1542 146.41 74.6987 145.892C75.869 139.552 75.595 133.05 75.9801 126.662Z" fill="#F7C0B9"/>
<path d="M83.3092 137.939C83.1907 134.73 82.8277 131.458 83.5351 128.291C83.1611 133.102 83.6721 137.913 84.3758 142.676C81.5871 140.566 79.6687 137.328 78.5317 134.053C79.5354 135.977 81.4686 136.991 83.3129 137.939H83.3092Z" fill="#F7C0B9"/>
<path d="M268.819 129.208C273.233 129.719 276.007 133.886 278.155 137.372C278 137.546 277.689 137.891 277.529 138.061C275.4 136.04 273.648 133.546 270.982 132.169C271.415 135.359 269.449 140.759 273.719 141.913C279.744 142.543 285.796 143.072 291.799 143.934C288.114 144.589 283.959 142.424 280.692 144.889C278.659 146.254 276.133 146.166 273.804 146.469C277.222 147.328 280.796 147.065 284.281 147.413C282.725 148.553 282.088 150.44 283.036 152.194C263.616 154.648 243.75 153.286 224.14 153.923C212.923 153.849 201.598 154.267 190.495 152.376C186.728 152.065 184.38 148.586 180.506 148.56C182.702 144.822 187.724 145.766 191.38 145.377C191.48 144.526 191.587 143.671 191.657 142.82C191.646 144.911 191.417 148.19 194.128 148.645C197.424 148.486 201.079 149.848 204.12 148.142C205.664 146.262 205.253 143.531 206.227 141.366C213.315 145.196 221.681 145.903 229.573 144.926C233.044 149.8 241.702 149.489 245.265 144.785C247.05 148.512 251.676 146.884 254.946 147.217C257.934 147.317 258.516 143.901 258.805 141.625C262.097 142.439 265.619 141.732 268.997 141.743C268.237 139.83 267.53 137.854 267.652 135.755C267.952 136.991 268.356 138.201 268.793 139.4C269.056 136.003 268.682 132.602 268.815 129.205L268.819 129.208Z" fill="#918783"/>
<path d="M162.73 144.656C163.667 138.727 166.256 131.396 173.081 130.381C173.303 135.211 171.029 139.722 170.07 144.382C170.363 144.485 170.659 144.589 170.959 144.696C172.229 142.624 172.581 140.181 173.518 137.968C173.314 139.23 173.122 140.492 172.796 141.732C172.718 142.017 172.644 142.306 172.57 142.598C174.162 142.465 175.762 142.691 177.207 143.397C177.229 143.59 177.273 143.967 177.296 144.163C169.933 145.559 162.33 145.366 154.908 144.733C157.349 140.318 160.015 135.985 160.963 130.944C165.867 134.689 161.311 139.863 161.541 144.622C161.934 144.63 162.334 144.641 162.734 144.652L162.73 144.656Z" fill="#9CA995"/>
<path d="M25.2573 133.013C31.568 132.709 37.8417 136.643 40.2822 142.487C40.1934 142.742 40.0193 143.257 39.9341 143.519C36.4751 141.865 34.4382 137.976 30.4125 137.343C28.8867 139.012 29.4793 141.514 28.1831 143.323C26.7794 140.044 25.2795 136.643 25.2573 133.016V133.013Z" fill="#D2DBCC"/>
<path d="M291.432 143.564C293.006 137.376 299.458 132.906 305.794 133.231C306.668 133.327 307.272 133.99 307.883 134.56C308.272 137.717 306.057 140.285 304.168 142.539C303.816 142.946 303.472 143.36 303.135 143.775C302.865 143.671 302.317 143.468 302.046 143.368C303.157 140.526 306.761 138.216 305.95 134.967C299.569 133.631 295.473 140.1 291.432 143.568V143.564Z" fill="#44282F"/>
<path d="M228.033 134.819C228.073 137.594 228.377 140.389 229.169 143.061C220.044 144.238 208.975 143.412 202.375 136.203C210.574 138.238 220.97 140.711 228.033 134.819Z" fill="#F7C0B9"/>
<path d="M248.998 139.933C251.583 139.03 253.357 136.821 255.224 134.941C256.29 138.064 254.498 141.395 253.813 144.463C253.046 144.745 252.305 145.092 251.576 145.459C251.079 145.007 250.583 144.556 250.094 144.104C249.439 144.519 248.802 144.959 248.161 145.4C246.05 144.178 246.776 140.577 248.998 139.933Z" fill="#F7C0B9"/>
<path d="M297.184 142.979C298.072 140.451 300.546 138.701 302.935 137.694C301.728 139.989 299.483 141.865 297.184 142.979Z" fill="#514241"/>
<path d="M24.9503 140.2C25.6132 141.869 26.3243 143.52 27.1057 145.137C27.4427 145.966 28.0316 146.787 29.0278 146.791C35.1792 147.302 41.3529 146.858 47.5154 146.947C49.2338 147.243 50.9522 147.535 52.6706 147.838C45.0786 150.451 36.8458 148.486 28.9908 149.248L29.0019 149.522C29.0204 149.763 29.0537 150.244 29.0685 150.488C29.2722 150.522 29.6722 150.584 29.8722 150.618C32.1202 151.14 34.4422 150.969 36.7236 151.158C34.8718 151.891 29.3389 153.042 32.6016 155.536C41.9491 159.27 52.3892 158.926 62.307 159.578C82.5909 160.062 102.882 159.87 123.173 159.907C134.184 159.452 145.294 159.696 156.175 157.701C158.612 157.209 161.263 156.695 163.048 154.815C161.363 151.206 156.086 152.983 154.193 149.955C154.056 148.186 154.175 146.369 154.904 144.733C162.326 145.363 169.929 145.555 177.292 144.163C177.27 143.971 177.225 143.594 177.203 143.397C175.759 142.691 174.159 142.461 172.566 142.598C172.64 142.306 172.714 142.017 172.792 141.732C178.977 141.288 185.18 141.336 191.372 141.099C191.517 141.662 191.628 142.235 191.654 142.82C191.583 143.671 191.476 144.526 191.376 145.377C187.721 145.766 182.699 144.822 180.503 148.56C184.377 148.586 186.725 152.065 190.491 152.376C201.594 154.267 212.919 153.849 224.137 153.923C243.747 153.286 263.616 154.648 283.033 152.194C286.855 152.468 292.947 154.63 295.306 150.732C293.654 146.41 288.062 145.14 284.274 147.413C280.789 147.065 277.215 147.328 273.796 146.469C276.126 146.166 278.652 146.254 280.685 144.889C283.948 142.424 288.103 144.589 291.792 143.934C295.573 144.112 299.35 143.804 303.132 143.771C303.469 143.357 303.813 142.942 304.165 142.535C304.15 142.846 304.139 143.161 304.135 143.483C310.798 144.075 317.393 145.969 323.578 148.527C325.908 149.774 329.307 151.432 328.978 154.567C328.071 157.846 324.463 159.108 321.608 160.222C311.812 163.419 301.491 164.444 291.303 165.591C256.146 168.907 220.796 168.445 185.528 168.978C143.083 169 100.601 169.266 58.2184 167.098C41.4825 166.121 24.5466 165.147 8.35141 160.481C5.37013 159.344 1.81852 158.238 0.240851 155.225C-0.818336 152.576 1.83334 150.573 3.8369 149.426C10.529 145.844 18.0878 144.267 25.5466 143.22C25.2503 142.235 25.0688 141.221 24.9503 140.204V140.2Z" fill="#E5E5E5"/>
<path d="M67.8474 140.381C68.4473 140.777 69.1102 141.084 69.7695 141.369C69.5213 143.401 69.3954 145.814 70.6731 147.528C73.4025 149.493 77.0097 148.475 80.1391 148.723C82.7834 149.045 83.4944 146.088 84.5277 144.315C85.8165 152.553 97.0232 155.477 102.808 150.096C114.455 152.527 126.921 153.386 138.313 149.234C138.087 155.577 145.361 154.148 149.542 154.215C152.127 154.67 155.09 152.886 154.193 149.959C156.086 152.986 161.363 151.21 163.048 154.818C161.263 156.698 158.612 157.209 156.175 157.705C145.294 159.7 134.184 159.455 123.173 159.911C102.882 159.874 82.5908 160.066 62.307 159.581C52.3891 158.93 41.9491 159.274 32.6016 155.54C29.3388 153.049 34.8718 151.898 36.7235 151.162C34.4422 150.973 32.1201 151.143 29.8721 150.622C35.9903 150.399 42.0935 150.921 48.2079 150.777C49.1264 150.699 50.8707 150.721 49.993 149.404C42.9972 149.53 35.9977 149.356 29.0018 149.526L28.9907 149.252C36.8457 148.49 45.0785 150.455 52.6706 147.842C50.9522 147.539 49.2338 147.246 47.5154 146.95C52.7891 145.648 58.9665 148.064 63.7624 144.996C62.607 140.933 59.8738 145.636 57.4666 144.197C59.759 141.336 64.8846 138.616 67.5585 142.465C67.8214 142.446 68.3436 142.402 68.6103 142.383C68.4029 141.699 68.2325 140.992 67.8511 140.385L67.8474 140.381Z" fill="#918783"/>
<path d="M103.896 148.32C104.667 145.729 106.019 143.309 106.656 140.637C116.044 146.791 127.606 147.724 138.49 146.736C127.873 152.057 115.174 150.71 103.896 148.32Z" fill="#F7C0B9"/>
<path d="M140.031 148.016C141.639 146.972 143.168 145.818 144.646 144.6C145.042 146.921 143.946 150.588 147.086 151.217C145.235 152.461 142.972 152.083 140.876 151.991C140.357 150.721 139.95 149.397 140.031 148.016Z" fill="#F7C0B9"/>
<path d="M284.277 147.417C288.062 145.144 293.658 146.414 295.31 150.736C292.951 154.633 286.859 152.472 283.037 152.198C282.085 150.444 282.725 148.556 284.281 147.417H284.277Z" fill="#44282F"/>
<path d="M286.973 148.238C289.069 147.553 292.717 148.519 293.025 150.962C290.469 151.299 287.521 150.821 284.81 150.884C283.644 149.626 285.929 148.553 286.973 148.238Z" fill="#FEFDFD"/>
<path d="M29.002 149.526C35.9978 149.356 42.9973 149.53 49.9931 149.404C50.8708 150.721 49.1228 150.699 48.2081 150.777C42.0937 150.921 35.9904 150.399 29.8723 150.622C29.6723 150.588 29.2723 150.525 29.0686 150.492C29.0538 150.251 29.0205 149.77 29.002 149.526Z" fill="#44282F"/>
<path d="M301.857 149.778C305.12 149.526 308.435 149.23 311.69 149.741C311.605 150.103 311.531 150.477 311.468 150.855C308.26 150.695 305.024 151.08 301.835 150.629C301.842 150.418 301.85 149.992 301.857 149.781V149.778Z" fill="#44282F"/>
<path d="M270.922 151.728C270.219 151.784 270.189 150.377 270.922 150.507C273.892 150.392 276.863 150.488 279.836 150.485C279.781 150.943 279.825 151.391 279.977 151.843C276.959 151.921 273.918 152.061 270.922 151.728Z" fill="#514241"/>
<path d="M198.264 158.656C198.039 156.869 200.346 157.179 201.49 157.124C209.582 157.313 217.759 156.621 225.789 157.587C225.826 157.812 225.896 158.271 225.929 158.497C216.778 159.3 207.453 159.004 198.264 158.652V158.656Z" fill="#9CA995"/>
</g>
<defs>
<clipPath id="clip0_813_5334">
<rect width="329" height="169" fill="white"/>
</clipPath>
</defs>
</svg>
